<?xml version="1.0" encoding="UTF-8" standalone="no"?>
<!DOCTYPE svg PUBLIC "-//W3C//DTD SVG 1.1//EN" "http://www.w3.org/Graphics/SVG/1.1/DTD/svg11.dtd">
<svg width="100%" height="100%" viewBox="0 0 21 26" version="1.1" xmlns="http://www.w3.org/2000/svg" xmlns:xlink="http://www.w3.org/1999/xlink" xml:space="preserve" xmlns:serif="http://www.serif.com/" style="fill-rule:evenodd;clip-rule:evenodd;stroke-linejoin:round;stroke-miterlimit:2;">
    <g transform="matrix(1,0,0,1,-1405.78,-52.3948)">
        <g transform="matrix(1,0,0,1.85185,0,0)">
            <g transform="matrix(0.521118,0,0,0.281404,682.9,16.1929)">
                <path d="M1387.17,48.143C1391.26,44.923 1396.41,43 1402.01,43C1415.27,43 1426.03,53.76 1426.03,67.014C1426.03,80.268 1415.27,91.028 1402.01,91.028C1396.41,91.028 1391.26,89.106 1387.17,85.886C1389.02,86.444 1390.98,86.744 1393.01,86.744C1404.05,86.744 1413,77.903 1413,67.014C1413,56.125 1404.05,47.284 1393.01,47.284C1390.98,47.284 1389.02,47.585 1387.17,48.143Z"/>
            </g>
        </g>
    </g>
</svg>
