<?xml version="1.0" encoding="UTF-8" standalone="no"?>
<!DOCTYPE svg PUBLIC "-//W3C//DTD SVG 1.1//EN" "http://www.w3.org/Graphics/SVG/1.1/DTD/svg11.dtd">
<svg width="100%" height="100%" viewBox="0 0 19 19" version="1.1" xmlns="http://www.w3.org/2000/svg" xmlns:xlink="http://www.w3.org/1999/xlink" xml:space="preserve" xmlns:serif="http://www.serif.com/" style="fill-rule:evenodd;clip-rule:evenodd;stroke-linejoin:round;stroke-miterlimit:2;">
    <g transform="matrix(1,0,0,1,-230.955,-471.255)">
        <g transform="matrix(1,0,0,1.85185,0,0)">
            <g transform="matrix(0.452272,0,0,0.452272,182.109,194.347)">
                <g transform="matrix(0.078125,0,0,0.0421875,108,132.953)">
                    <path d="M511.872,512L511.872,511.979L512,511.979L512,324.203C512,232.341 492.224,161.579 384.832,161.579C333.205,161.579 298.56,189.909 284.416,216.768L282.923,216.768L282.923,170.155L181.099,170.155L181.099,511.979L287.125,511.979L287.125,342.72C287.125,298.155 295.573,255.061 350.763,255.061C405.141,255.061 405.952,305.92 405.952,345.579L405.952,512L511.872,512Z" style="fill-rule:nonzero;"/>
                </g>
                <g transform="matrix(0.078125,0,0,0.0421875,108,132.953)">
                    <rect x="8.448" y="170.176" width="106.155" height="341.824" style="fill-rule:nonzero;"/>
                </g>
                <g transform="matrix(0.078125,0,0,0.0421875,108,132.953)">
                    <path d="M61.483,0C27.541,0 0,27.541 0,61.483C0,95.424 27.541,123.541 61.483,123.541C95.424,123.541 122.965,95.424 122.965,61.483C122.944,27.541 95.403,0 61.483,0Z" style="fill-rule:nonzero;"/>
                </g>
            </g>
        </g>
    </g>
</svg>
