<?xml version="1.0" encoding="UTF-8" standalone="no"?>
<!DOCTYPE svg PUBLIC "-//W3C//DTD SVG 1.1//EN" "http://www.w3.org/Graphics/SVG/1.1/DTD/svg11.dtd">
<svg width="100%" height="100%" viewBox="0 0 108 96" version="1.1" xmlns="http://www.w3.org/2000/svg" xmlns:xlink="http://www.w3.org/1999/xlink" xml:space="preserve" xmlns:serif="http://www.serif.com/" style="fill-rule:evenodd;clip-rule:evenodd;stroke-linecap:round;stroke-linejoin:round;stroke-miterlimit:10;">
    <g transform="matrix(1,0,0,1,0,0.00234426)">
        <g transform="matrix(1,0,0,1,-0.05,0.078)">
            <g transform="matrix(1,0,0,1,0,9.265)">
                <path d="M15.281,15C14.302,15.181 13.357,15.514 12.481,15.988L10.012,17.47C8.403,18.663 7.057,20.177 6.061,21.915C5.073,23.589 4.247,25.353 3.592,27.183C2.362,30.868 1.534,34.675 1.123,38.538C0.629,42.324 0.465,46.275 0.3,50.226C0.465,52.526 0.465,54.671 0.794,56.976C0.959,59.276 1.288,61.585 1.617,63.726C1.968,65.982 2.576,68.191 3.428,70.31C3.871,71.387 4.483,72.387 5.239,73.273C6.023,74.081 6.981,74.7 8.039,75.084C6.998,74.676 6.086,73.993 5.4,73.109C4.747,72.269 4.245,71.321 3.918,70.309C3.282,68.166 2.895,65.956 2.766,63.724C2.601,61.424 2.601,59.279 2.601,56.974C2.601,54.669 2.766,52.529 2.766,50.224L2.766,50.059C2.601,46.273 2.766,42.486 2.931,38.7C3.146,34.917 3.754,31.166 4.745,27.508C5.214,25.662 5.934,23.89 6.885,22.24C7.797,20.588 8.964,19.089 10.342,17.8C11.039,17.16 11.812,16.608 12.642,16.154C13.475,15.671 14.361,15.284 15.281,15C17.101,14.481 19.013,14.369 20.881,14.671C19.013,14.369 17.101,14.481 15.281,15Z" style="fill:white;fill-rule:nonzero;stroke:white;stroke-width:0.5px;"/>
            </g>
        </g>
        <g transform="matrix(1,0,0,1,-0.05,0.078)">
            <g transform="matrix(1,0,0,1,14.799,4.163)">
                <path d="M24.352,39.2L25.5,19.276L25.5,7.752C25.464,7.147 24.956,6.668 24.35,6.668C23.744,6.668 23.236,7.147 23.2,7.752L23.2,19.276L24.352,39.2Z" style="fill:white;fill-rule:nonzero;stroke:white;stroke-width:0.5px;"/>
            </g>
        </g>
        <g transform="matrix(1,0,0,1,-0.05,0.078)">
            <g transform="matrix(1,0,0,1,3.425,31.541)">
                <path d="M17.947,49.846C17.777,49.315 17.28,48.952 16.722,48.952C16.579,48.952 16.436,48.976 16.301,49.023C15.834,49.198 15.523,49.648 15.523,50.146C15.523,50.327 15.564,50.506 15.643,50.669C15.959,51.405 16.18,52.178 16.301,52.969C16.436,53.337 16.492,53.73 16.466,54.121L16.466,55.273C16.46,56.014 16.291,56.744 15.972,57.413C15.624,58.122 15.116,58.742 14.49,59.224C13.253,60.342 11.868,61.284 10.374,62.024C8.822,62.728 7.228,63.334 5.6,63.839C7.246,63.51 9.057,63.18 10.7,62.687C12.43,62.164 14.048,61.327 15.474,60.218C16.25,59.689 16.92,59.019 17.449,58.243C18.018,57.413 18.359,56.447 18.437,55.443L18.437,52.643C18.434,51.69 18.269,50.744 17.947,49.846Z" style="fill:white;fill-rule:nonzero;stroke:white;stroke-width:0.5px;"/>
            </g>
        </g>
        <g transform="matrix(1,0,0,1,-0.05,0.078)">
            <g transform="matrix(1,0,0,1,7.096,5.766)">
                <path d="M14.605,10.1C14.231,9.733 13.782,9.452 13.288,9.277L13.123,9.277C12.958,9.277 12.958,9.112 12.794,9.112C12.71,9.095 12.624,9.086 12.538,9.086C11.847,9.086 11.279,9.654 11.279,10.345C11.279,10.946 11.71,11.467 12.3,11.581C12.629,11.581 12.794,11.746 12.958,11.746C13.123,11.911 13.287,11.911 13.452,12.24C13.781,12.569 13.781,13.392 13.946,14.051C14.056,15.534 14,17.025 13.781,18.496C14.471,17.087 14.969,15.592 15.263,14.051C15.263,13.722 15.428,13.228 15.428,12.899C15.445,12.454 15.389,12.009 15.263,11.582C15.252,11.02 15.015,10.485 14.605,10.1Z" style="fill:white;fill-rule:nonzero;stroke:white;stroke-width:0.5px;"/>
            </g>
        </g>
        <g transform="matrix(1,0,0,1,-0.05,0.078)">
            <g transform="matrix(1,0,0,1,31.86,3.116)">
                <path d="M52.069,8.14L55.361,7.482C55.951,7.368 56.382,6.847 56.382,6.246C56.382,5.555 55.814,4.987 55.123,4.987C55.037,4.987 54.951,4.996 54.867,5.013L50.588,6C50.063,6.159 49.677,6.61 49.6,7.153L49.6,31.353L50.752,67.57L51.9,31.352L51.9,8.14L52.069,8.14Z" style="fill:white;fill-rule:nonzero;stroke:white;stroke-width:0.5px;"/>
            </g>
        </g>
        <g transform="matrix(1,0,0,1,-0.05,0.078)">
            <g transform="matrix(1,0,0,1,33.734,0)">
                <path d="M73.572,45.334C73.901,41.219 74.066,36.609 74.066,31.506C74.066,17.348 72.42,8.459 68.633,4.014C67.294,2.291 65.453,1.024 63.365,0.391C63.2,0.391 63.2,0.226 63.036,0.226L62.707,0.226C61.006,0.114 59.297,0.169 57.607,0.391C55.883,0.733 54.181,1.172 52.507,1.708C54.153,1.543 55.964,1.543 57.607,1.543C59.241,1.617 60.852,1.951 62.381,2.531C64.136,2.935 65.703,3.923 66.826,5.331C70.115,9.446 71.6,17.677 71.6,31.341C71.6,36.28 71.435,40.889 71.106,45.005C70.965,48.376 70.579,51.732 69.95,55.047C69.48,58.382 68.595,61.645 67.316,64.76C66.117,67.862 64.264,70.669 61.883,72.991C60.689,74.162 59.295,75.111 57.767,75.791C56.27,76.582 54.66,77.138 52.993,77.437C54.681,77.095 56.334,76.599 57.932,75.955C59.522,75.275 61.017,74.389 62.377,73.321C64.991,71.061 67.071,68.25 68.468,65.09C69.883,61.969 70.986,58.715 71.76,55.377C72.551,52.066 73.156,48.714 73.571,45.335L73.572,45.334Z" style="fill:white;fill-rule:nonzero;stroke:white;stroke-width:0.5px;"/>
            </g>
        </g>
        <g transform="matrix(1,0,0,1,-0.05,0.078)">
            <g transform="matrix(1,0,0,1,13.054,19.026)">
                <path d="M26.1,30.917L25.441,30.917C24.826,31.121 24.466,31.77 24.618,32.399L24.618,52.647L25.441,68.122C24.618,68.451 23.959,68.616 23.141,68.945C22.323,69.274 21.33,69.439 20.507,69.768C21.33,69.603 22.318,69.439 23.141,69.274C24.037,69.132 24.918,68.912 25.775,68.615C25.94,68.615 25.94,68.45 25.94,68.286L26.928,52.486L26.928,32.728L36.469,29.6L26.1,30.917Z" style="fill:white;fill-rule:nonzero;stroke:white;stroke-width:0.5px;"/>
            </g>
        </g>
        <g transform="matrix(1,0,0,1,-0.05,0.078)">
            <g transform="matrix(1,0,0,1,22.942,2.224)">
                <path d="M41.233,4.752C41.197,4.147 40.689,3.668 40.083,3.668C39.477,3.668 38.969,4.147 38.933,4.752L38.933,50.847L39.921,80.315C39.289,80.608 38.627,80.829 37.946,80.974C37.212,81.118 36.494,81.338 35.806,81.632C36.629,81.467 37.288,81.303 37.946,81.138C38.604,80.973 39.428,80.809 40.086,80.644C40.087,80.644 40.089,80.644 40.09,80.644C40.178,80.644 40.251,80.571 40.251,80.483C40.251,80.482 40.251,80.48 40.251,80.479L41.239,50.847L41.239,4.752L41.233,4.752Z" style="fill:white;fill-rule:nonzero;stroke:white;stroke-width:0.5px;"/>
            </g>
        </g>
    </g>
</svg>
