<svg xmlns="http://www.w3.org/2000/svg" viewBox="0 0 108 95.708"><defs><style>.a{stroke:#000;stroke-linecap:round;stroke-linejoin:round;stroke-miterlimit:10;stroke-width:0.5px;}</style></defs><g transform="translate(-0.05 0.078)"><path class="a" d="M15.281,15a9.507,9.507,0,0,0-2.8.988l-2.469,1.482a14.525,14.525,0,0,0-3.951,4.445,30.73,30.73,0,0,0-2.469,5.268A53.823,53.823,0,0,0,1.123,38.538C.629,42.324.465,46.275.3,50.226h0c.165,2.3.165,4.445.494,6.75.165,2.3.494,4.609.823,6.75A30,30,0,0,0,3.428,70.31a11.028,11.028,0,0,0,1.811,2.963,7.436,7.436,0,0,0,2.8,1.811A6.208,6.208,0,0,1,5.4,73.109a9.151,9.151,0,0,1-1.482-2.8,29.028,29.028,0,0,1-1.152-6.585c-.165-2.3-.165-4.445-.165-6.75s.165-4.445.165-6.75h0v-.165h0c-.165-3.786,0-7.573.165-11.359A54.644,54.644,0,0,1,4.745,27.508a20.842,20.842,0,0,1,2.14-5.268A17.965,17.965,0,0,1,10.342,17.8a11.686,11.686,0,0,1,2.3-1.646A12.743,12.743,0,0,1,15.281,15a12.907,12.907,0,0,1,5.6-.329A12.907,12.907,0,0,0,15.281,15Z" transform="translate(0 9.265)"/><path class="a" d="M24.352,39.2,25.5,19.276h0V7.752a1.152,1.152,0,0,0-2.3,0V19.276h0Z" transform="translate(14.799 4.163)"/><path class="a" d="M17.947,49.846h0a1.286,1.286,0,0,0-1.646-.823,1.2,1.2,0,0,0-.658,1.646,9.437,9.437,0,0,1,.658,2.3,2.8,2.8,0,0,1,.165,1.152v1.152a5.069,5.069,0,0,1-.494,2.14,5.146,5.146,0,0,1-1.482,1.811,18.134,18.134,0,0,1-4.116,2.8A40.965,40.965,0,0,1,5.6,63.839c1.646-.329,3.457-.659,5.1-1.152a14.7,14.7,0,0,0,4.774-2.469,7.508,7.508,0,0,0,1.975-1.975,5.738,5.738,0,0,0,.988-2.8v-2.8A8.362,8.362,0,0,0,17.947,49.846Z" transform="translate(3.425 31.541)"/><path class="a" d="M14.605,10.1a3.585,3.585,0,0,0-1.317-.823h-.165c-.165,0-.165-.165-.329-.165a1.259,1.259,0,1,0-.494,2.469c.329,0,.494.165.658.165.165.165.329.165.494.494.329.329.329,1.152.494,1.811a20.1,20.1,0,0,1-.165,4.445,17.629,17.629,0,0,0,1.482-4.445c0-.329.165-.823.165-1.152a4.091,4.091,0,0,0-.165-1.317A2.087,2.087,0,0,0,14.605,10.1Z" transform="translate(7.096 5.766)"/><path class="a" d="M52.069,8.14l3.292-.658a1.259,1.259,0,1,0-.494-2.469L50.588,6A1.412,1.412,0,0,0,49.6,7.153v24.2h0L50.752,67.57,51.9,31.352v-.165h0V8.14Z" transform="translate(31.86 3.116)"/><path class="a" d="M73.572,45.334q.494-6.173.494-13.828c0-14.158-1.646-23.047-5.433-27.492A10.546,10.546,0,0,0,63.365.391c-.165,0-.165-.165-.329-.165h-.329a26.039,26.039,0,0,0-5.1.165,46.2,46.2,0,0,0-5.1,1.317c1.646-.165,3.457-.165,5.1-.165a15.42,15.42,0,0,1,4.774.988h0a7.972,7.972,0,0,1,4.445,2.8C70.115,9.446,71.6,17.677,71.6,31.341c0,4.939-.165,9.548-.494,13.664h0A69.5,69.5,0,0,1,69.95,55.047a40.465,40.465,0,0,1-2.634,9.713,23.175,23.175,0,0,1-5.433,8.231,14.023,14.023,0,0,1-4.116,2.8,16.428,16.428,0,0,1-4.774,1.646,28.155,28.155,0,0,0,4.939-1.482,19.805,19.805,0,0,0,4.445-2.634,23.37,23.37,0,0,0,6.091-8.231,51.952,51.952,0,0,0,3.292-9.713,90.79,90.79,0,0,0,1.811-10.042Z" transform="translate(33.734)"/><path class="a" d="M26.1,30.917h-.659a1.252,1.252,0,0,0-.823,1.482V52.647h0l.823,15.475c-.823.329-1.482.494-2.3.823s-1.811.494-2.634.823c.823-.165,1.811-.329,2.634-.494a15.412,15.412,0,0,0,2.634-.659c.165,0,.165-.165.165-.329h0l.988-15.8h0V32.728L36.469,29.6Z" transform="translate(13.054 19.026)"/><path class="a" d="M41.233,4.752a1.152,1.152,0,0,0-2.3,0V50.847h0l.988,29.468a9.282,9.282,0,0,1-1.975.659,10.648,10.648,0,0,0-2.14.658c.823-.165,1.482-.329,2.14-.494s1.482-.329,2.14-.494a.161.161,0,0,0,.165-.165h0l.988-29.632v-.165h0V4.752Z" transform="translate(22.942 2.224)"/></g></svg>