<?xml version="1.0" encoding="UTF-8" standalone="no"?>
<!DOCTYPE svg PUBLIC "-//W3C//DTD SVG 1.1//EN" "http://www.w3.org/Graphics/SVG/1.1/DTD/svg11.dtd">
<svg width="100%" height="100%" viewBox="0 0 45 45" version="1.1" xmlns="http://www.w3.org/2000/svg" xmlns:xlink="http://www.w3.org/1999/xlink" xml:space="preserve" xmlns:serif="http://www.serif.com/" style="fill-rule:evenodd;clip-rule:evenodd;stroke-linecap:round;stroke-linejoin:round;stroke-miterlimit:1.5;">
    <g transform="matrix(1,0,0,1,-3464.01,-42.5)">
        <g transform="matrix(1.43177,0,0,1.39583,-895.054,0)">
            <g transform="matrix(1,0,0,1.49254,0,0)">
                <g transform="matrix(0.67234,0,0,0.462065,721.852,-13.2018)">
                    <circle cx="3478" cy="96" r="13" style="fill:white;"/>
                </g>
                <g>
                    <g transform="matrix(0.698437,0,0,0.411429,625.139,5.96571)">
                        <path d="M3486.51,80L3486.51,87" style="fill:none;stroke:white;stroke-width:1.07px;"/>
                    </g>
                    <g transform="matrix(0.698437,0,0,0.411429,625.139,-12.2743)">
                        <path d="M3486.51,80L3486.51,87" style="fill:none;stroke:white;stroke-width:1.07px;"/>
                    </g>
                </g>
                <g transform="matrix(0.866025,-0.343624,0.727539,0.866025,387.297,1055.76)">
                    <g transform="matrix(0.698437,0,0,0.411429,625.139,5.96571)">
                        <path d="M3486.51,80L3486.51,87" style="fill:none;stroke:white;stroke-width:1.07px;"/>
                    </g>
                    <g transform="matrix(0.698437,0,0,0.411429,625.139,-12.2743)">
                        <path d="M3486.51,80L3486.51,87" style="fill:none;stroke:white;stroke-width:1.07px;"/>
                    </g>
                </g>
                <g transform="matrix(0.5,-0.595175,1.26013,0.5,1490.81,1836.98)">
                    <g transform="matrix(0.698437,0,0,0.411429,625.139,5.96571)">
                        <path d="M3486.51,80L3486.51,87" style="fill:none;stroke:white;stroke-width:1.07px;"/>
                    </g>
                    <g transform="matrix(0.698437,0,0,0.411429,625.139,-12.2743)">
                        <path d="M3486.51,80L3486.51,87" style="fill:none;stroke:white;stroke-width:1.07px;"/>
                    </g>
                </g>
                <g transform="matrix(0.5,-0.595175,1.26013,0.5,1490.81,1836.98)">
                    <g transform="matrix(0.698437,0,0,0.411429,625.139,5.96571)">
                        <path d="M3486.51,80L3486.51,87" style="fill:none;stroke:white;stroke-width:1.07px;"/>
                    </g>
                    <g transform="matrix(0.698437,0,0,0.411429,625.139,-12.2743)">
                        <path d="M3486.51,80L3486.51,87" style="fill:none;stroke:white;stroke-width:1.07px;"/>
                    </g>
                </g>
                <g transform="matrix(4.1169e-17,-0.462065,0.67234,2.82933e-17,2995.64,1638.26)">
                    <circle cx="3478" cy="96" r="13" style="fill:white;"/>
                </g>
                <g transform="matrix(6.12323e-17,-0.687248,1.45508,6.12323e-17,3014.85,2134.35)">
                    <g transform="matrix(0.698437,0,0,0.411429,625.139,5.96571)">
                        <path d="M3486.51,80L3486.51,87" style="fill:none;stroke:white;stroke-width:1.07px;"/>
                    </g>
                    <g transform="matrix(0.698437,0,0,0.411429,625.139,-12.2743)">
                        <path d="M3486.51,80L3486.51,87" style="fill:none;stroke:white;stroke-width:1.07px;"/>
                    </g>
                </g>
                <g transform="matrix(-0.5,-0.595175,1.26013,-0.5,4551.06,1868.18)">
                    <g transform="matrix(0.698437,0,0,0.411429,625.139,5.96571)">
                        <path d="M3486.51,80L3486.51,87" style="fill:none;stroke:white;stroke-width:1.07px;"/>
                    </g>
                    <g transform="matrix(0.698437,0,0,0.411429,625.139,-12.2743)">
                        <path d="M3486.51,80L3486.51,87" style="fill:none;stroke:white;stroke-width:1.07px;"/>
                    </g>
                </g>
                <g transform="matrix(-0.866025,-0.343624,0.727539,-0.866025,5687.81,1109.8)">
                    <g transform="matrix(0.698437,0,0,0.411429,625.139,5.96571)">
                        <path d="M3486.51,80L3486.51,87" style="fill:none;stroke:white;stroke-width:1.07px;"/>
                    </g>
                    <g transform="matrix(0.698437,0,0,0.411429,625.139,-12.2743)">
                        <path d="M3486.51,80L3486.51,87" style="fill:none;stroke:white;stroke-width:1.07px;"/>
                    </g>
                </g>
                <g transform="matrix(-0.866025,-0.343624,0.727539,-0.866025,5687.81,1109.8)">
                    <g transform="matrix(0.698437,0,0,0.411429,625.139,5.96571)">
                        <path d="M3486.51,80L3486.51,87" style="fill:none;stroke:white;stroke-width:1.07px;"/>
                    </g>
                    <g transform="matrix(0.698437,0,0,0.411429,625.139,-12.2743)">
                        <path d="M3486.51,80L3486.51,87" style="fill:none;stroke:white;stroke-width:1.07px;"/>
                    </g>
                </g>
            </g>
        </g>
    </g>
</svg>
